<svg class="svg-icon" style="width: 1em;height: 1em;vertical-align: middle;fill: currentColor;overflow: hidden;" viewBox="0 0 1024 1024" version="1.1" xmlns="http://www.w3.org/2000/svg"><path d="M534.945185 948.148148c4.361481-4.551111 8.722963-8.912593 12.894815-13.463704s7.205926-8.533333 10.808889-12.705185 7.205926-8.154074 10.619259-12.515555 6.826667-8.912593 10.24-13.274074 6.637037-8.533333 9.860741-12.894815 6.447407-9.481481 9.860741-14.032593 6.068148-8.533333 8.912592-13.084444 6.068148-9.860741 9.102222-14.601482 5.499259-8.912593 8.154075-13.274074 5.499259-9.860741 8.154074-14.791111 5.30963-9.291852 7.585185-14.032592 4.93037-10.05037 7.395555-14.980741 4.740741-9.671111 7.016297-14.601482 4.361481-10.24 6.447407-15.36 4.361481-10.05037 6.257778-14.98074 3.792593-10.24 5.688889-15.54963 3.792593-10.24 5.499259-15.36 3.223704-10.619259 4.93037-15.739259 3.223704-10.42963 4.740741-15.73926 2.654815-10.619259 3.982222-16.118518 2.844444-10.619259 3.982223-15.928889 2.085926-10.808889 3.223703-16.308148 2.275556-10.808889 3.223704-16.118519 1.706667-10.998519 2.465185-16.497777 1.706667-10.998519 2.275556-16.308149 1.137778-11.188148 1.517037-16.687407 1.137778-10.998519 1.517037-16.497778 0-11.188148 0-16.877037v-14.411852a18.962963 18.962963 0 0 0 0-2.465185v-7.016296a18.962963 18.962963 0 0 0-37.925926 0v4.171852a602.832593 602.832593 0 0 1-197.973334 442.974815 18.962963 18.962963 0 1 0 25.410371 28.254814q12.515556-11.188148 24.272592-22.945185z" fill="#FFB53E" /><path d="M464.782222 889.173333c5.12-5.30963 10.42963-10.42963 15.36-15.928889l7.016297-8.154074c4.93037-5.499259 9.671111-11.188148 14.411851-16.877037l6.257778-8.154074c4.551111-6.068148 9.291852-11.946667 13.653333-18.962963l5.12-7.774815c4.361481-6.447407 8.912593-13.084444 13.084445-18.962962l4.171852-7.205926c4.171852-7.016296 8.343704-14.032593 12.325926-21.428149l3.223703-7.205925c3.982222-7.585185 7.964444-15.17037 11.567408-22.945186l2.654815-5.878518c3.602963-7.964444 7.205926-16.118519 10.429629-24.272593l2.085926-5.878518c3.223704-8.343704 6.257778-16.687407 9.102222-25.220741l1.706667-5.688889c2.654815-8.533333 5.30963-17.256296 7.585185-25.979259 0-2.085926 0.948148-4.361481 1.517037-6.637037 2.085926-8.533333 4.171852-17.066667 5.878519-25.6 0-2.654815 0-5.30963 1.327407-7.964445 1.517037-8.154074 2.844444-16.497778 3.982222-24.651852 0-3.413333 0-6.826667 1.137778-10.24 0-7.585185 1.706667-14.980741 2.275556-22.565925v-13.653334-16.687407a18.962963 18.962963 0 0 0 0-3.034074v-7.016297a18.962963 18.962963 0 0 0 0-5.688888 108.278519 108.278519 0 0 0-3.982222-18.962963v-1.706667a109.416296 109.416296 0 0 0-6.826667-16.497778l-1.137778-2.085926a110.743704 110.743704 0 0 0-9.291852-14.411852l-1.706666-2.275555a111.881481 111.881481 0 0 0-11.567408-12.515556l-2.085926-1.896296a111.691852 111.691852 0 0 0-13.653333-10.24L568.888889 417.185185a109.985185 109.985185 0 0 0-15.54963-7.774815h-2.085926a108.088889 108.088889 0 0 0-17.445926-5.12H530.962963a108.088889 108.088889 0 0 0-18.962963-1.896296 110.364444 110.364444 0 0 0-100.314074 64.663704 18.962963 18.962963 0 0 0 34.512593 15.739259A72.438519 72.438519 0 0 1 512 440.13037a70.921481 70.921481 0 0 1 14.222222 1.517037 72.628148 72.628148 0 0 1 56.888889 69.025186v30.909629c0 3.982222-1.137778 11.188148-1.706667 16.687408s0 9.481481-1.517037 14.222222-1.517037 9.291852-2.275555 13.842963-1.706667 11.188148-2.844445 16.877037-1.517037 6.826667-2.275555 10.429629c-1.517037 6.637037-2.844444 13.274074-4.551111 18.962963 0 2.654815-1.517037 5.30963-2.275556 7.964445-2.085926 7.205926-3.982222 14.411852-6.257778 21.617778l-2.085926 5.878518c-2.654815 7.774815-5.30963 15.54963-8.343703 23.134815A510.672593 510.672593 0 0 1 358.4 929.185185a18.962963 18.962963 0 1 0 20.859259 31.288889q14.032593-9.481481 27.306667-18.962963l7.016296-5.688889c6.447407-5.12 12.705185-10.05037 18.962963-15.36l7.774815-7.016296c5.688889-5.12 11.377778-10.05037 16.687407-15.36z" fill="#FFB53E" /><path d="M530.962963 505.173333a18.962963 18.962963 0 0 0-37.925926 0 417.185185 417.185185 0 0 1-232.485926 375.277037 18.962963 18.962963 0 0 0 16.877037 33.943704A455.111111 455.111111 0 0 0 530.962963 505.173333z" fill="#FFB53E" /><path d="M432.545185 577.991111a18.962963 18.962963 0 1 0-37.925926-7.585185A328.817778 328.817778 0 0 1 182.044444 814.459259a18.962963 18.962963 0 0 0 12.515556 35.84 366.933333 366.933333 0 0 0 237.985185-272.308148z" fill="#FFB53E" /><path d="M348.16 515.034074a17.825185 17.825185 0 0 0 0-2.654815 163.271111 163.271111 0 0 1 298.477037-92.349629A18.962963 18.962963 0 1 0 677.925926 398.222222a201.007407 201.007407 0 0 0-366.743704 103.537778 18.962963 18.962963 0 0 0 0 3.034074A237.226667 237.226667 0 0 1 123.259259 736.521481a18.962963 18.962963 0 0 0-14.98074 18.962963 18.962963 18.962963 0 0 0 0 3.982223 18.962963 18.962963 0 0 0 18.962962 14.98074h3.982223a275.342222 275.342222 0 0 0 216.936296-259.413333z" fill="#FFB53E" /><path d="M248.794074 561.303704a18.962963 18.962963 0 0 0-36.02963-11.567408 146.014815 146.014815 0 0 1-129.327407 100.314074 18.962963 18.962963 0 0 0 1.137778 37.925926h1.137778a184.13037 184.13037 0 0 0 163.081481-126.672592zM75.851852 512a434.820741 434.820741 0 0 1 162.702222-339.816296 18.962963 18.962963 0 1 0-23.893333-29.582223A472.746667 472.746667 0 0 0 37.925926 512a18.962963 18.962963 0 0 0 37.925926 0zM512 37.925926a474.074074 474.074074 0 0 0-231.917037 60.491852 18.962963 18.962963 0 1 0 18.962963 32.995555A436.148148 436.148148 0 0 1 948.148148 512a18.962963 18.962963 0 0 0 37.925926 0A474.074074 474.074074 0 0 0 512 37.925926z" fill="#FFB53E" /><path d="M804.408889 512v-7.016296a16.877037 16.877037 0 0 0 0-2.275556A292.02963 292.02963 0 0 0 581.404444 227.555556a18.962963 18.962963 0 1 0-8.912592 37.925925 254.293333 254.293333 0 0 1 193.801481 244.432593 685.131852 685.131852 0 0 1-154.358518 431.407407 18.962963 18.962963 0 1 0 29.392592 23.893334 722.488889 722.488889 0 0 0 162.702223-450.180741 17.256296 17.256296 0 0 0 0.379259-3.034074zM221.108148 482.038519a18.962963 18.962963 0 0 0 16.877037 20.859259h1.896296a18.962963 18.962963 0 0 0 18.962963-17.066667A253.724444 253.724444 0 0 1 512 257.706667a18.962963 18.962963 0 0 0 0-37.925926 291.460741 291.460741 0 0 0-290.891852 262.257778z" fill="#FFB53E" /><path d="M165.167407 516.740741a18.962963 18.962963 0 0 0 0-4.361482 345.884444 345.884444 0 0 1 594.488889-240.829629 18.962963 18.962963 0 0 0 27.306667-26.358519A383.620741 383.620741 0 0 0 128.379259 504.604444a54.044444 54.044444 0 0 1-54.044444 54.044445 18.962963 18.962963 0 1 0 0 37.925926 91.780741 91.780741 0 0 0 90.832592-79.834074zM838.731852 310.423704a18.962963 18.962963 0 0 0-32.237037 19.911111 345.315556 345.315556 0 0 1 51.389629 174.459259 775.205926 775.205926 0 0 1-88.557037 362.002963 18.962963 18.962963 0 0 0 33.564445 17.635556 823.940741 823.940741 0 0 0 92.349629-368.64 18.962963 18.962963 0 0 0 0-3.413334 383.620741 383.620741 0 0 0-56.509629-201.955555z" fill="#FFB53E" /></svg>